<?xml version="1.0" encoding="utf-8"?>
<!-- Generator: Adobe Illustrator 24.1.1, SVG Export Plug-In . SVG Version: 6.00 Build 0)  -->
<svg version="1.1" id="Layer_1" xmlns="http://www.w3.org/2000/svg" xmlns:xlink="http://www.w3.org/1999/xlink" x="0px" y="0px"
	 viewBox="0 0 512 512" style="enable-background:new 0 0 512 512;" xml:space="preserve">
<style type="text/css">
	.st0{fill:#444444;}
</style>
<g>
	<path class="st0" d="M455.1,31.1H56.9C25.4,31.1,0,56.3,0,87.3V256c0,124.2,101.9,224.9,227.6,224.9h56.9
		C410.1,480.9,512,380.2,512,256V87.3C512,56.3,486.5,31.1,455.1,31.1L455.1,31.1z M256,396.6c-94.3,0-170.7-75.5-170.7-168.7v-84.3
		h85.3v84.3c0,46.6,38.2,84.3,85.3,84.3s85.3-37.8,85.3-84.3h85.3C426.6,321,350.2,396.6,256,396.6L256,396.6z M425.2,199.8
		l-82.5-21.1l19.9-81.5l83.9,21.1L425.2,199.8L425.2,199.8z"/>
</g>
</svg>
